<?xml version="1.0" encoding="UTF-8"?>
<svg id="Layer_1" data-name="Layer 1" xmlns="http://www.w3.org/2000/svg" viewBox="0 0 400 81.39">
  <defs>
    <style>
      .cls-1 {
        fill: #fff;
      }

      .cls-2 {
        fill: #92023f;
      }

      .cls-3 {
        fill-rule: evenodd;
      }
    </style>
  </defs>
  <ellipse class="cls-1" cx="40.62" cy="40.64" rx="40.4" ry="40.51"/>
  <path d="m139.33,17.63h-.11l-11.52,28.07h-14.25l.42-28.07h-.11l-5.97,28.07h-13.17l8.35-39.28h21.6l-.67,23.4h.11l9.27-23.4h21.6l-8.35,39.28h-13.17l5.97-28.07Z"/>
  <path d="m190.14,26.44h-3.54l1.71-8.05h3.54l.94-4.41,14.14-4.57-1.91,8.98h5.93l-1.71,8.05h-5.93l-1.78,8.38c-.44,2.07.06,2.77,1.64,2.77.92,0,2.01,0,3.28-.33l-1.71,8.05c-3.13.65-6.4,1.2-9.01,1.2-5.11,0-9.51-1.58-8.22-7.67l2.64-12.41Z"/>
  <path d="m215.6,6.42h13.17l-3.33,15.67h.11c2.53-2.94,5.09-4.51,9.55-4.51,5.5,0,8.89,2.72,7.35,9.95l-3.86,18.17h-13.17l3.6-16.92c.43-2.02-.15-3.16-1.72-3.16-1.47,0-2.8.87-3.26,3.05l-3.62,17.03h-13.17l8.35-39.28Z"/>
  <path d="m297.99,42.54c-2.94,3.1-6.34,3.97-9.33,3.97-6.64,0-10.28-5.11-8.23-14.8,2.2-10.34,8.28-14.15,14.22-14.15,3.05,0,5.75.87,7.4,3.32l3.08-14.47h13.17l-8.35,39.28h-12.4l.45-3.16Zm2.37-14.74c0-1.58-.83-2.5-2.3-2.5-2.72,0-3.61,2.39-4.54,6.75-.79,3.7-1.11,6.75,1.72,6.75,1.47,0,2.21-.65,2.76-1.47.56-.82,1.07-2.45,1.67-5.28.51-2.39.66-3.1.69-4.24Z"/>
  <path d="m319.93,18.39h13.17l-5.81,27.31h-13.17l5.8-27.31Zm2.54-11.97h13.17l-1.78,8.38h-13.17l1.78-8.38Z"/>
  <path d="m95.01,70.31l3.97-18.7h5.17l-3.2,15.06h8.47l-.77,3.64h-13.64Z"/>
  <path d="m115.93,62.15c.44-1.49,1.12-2.7,2.84-2.78.76-.05,1.26.28,1.53.83.27.55.33,1.25.18,1.95h-4.56Zm8.66,2.64c1.03-4.85,0-7.88-5.3-7.88-3.91,0-7.48,2.33-8.35,6.45-1.09,5.11.51,7.32,5.71,7.32,1.53,0,3.04-.28,4.33-1,1.4-.72,2.72-1.93,3.23-3.62h-4.56c-.44,1.22-1.43,1.87-2.81,1.87-1.84,0-1.97-1.45-1.58-3.14h9.33Z"/>
  <path d="m135.63,66.67l.86-4.04h3.41c1.15.08,1.67,1.06,1.45,2.1-.25,1.16-1.37,1.94-2.67,1.94h-3.04Zm2.84,3.64c.18,0,7.04.36,8.2-5.09.57-2.67-1.11-4.25-3.52-4.59v-.05c2.19-.39,4.42-1.79,4.91-4.07.7-3.28-1.91-4.87-5.43-4.89h-8.97l-3.97,18.69h8.79Zm-.41-15.06h2.83c1.22,0,1.97.74,1.75,1.79-.3,1.41-1.32,1.95-2.73,1.95l-2.65.03.8-3.77Z"/>
  <path d="m154,63.8c.39-1.84,1.3-4.05,3.36-4.05s2.03,2.21,1.64,4.05c-.39,1.84-1.3,4.05-3.36,4.05s-2.03-2.21-1.64-4.05Zm3.97-6.89c-4.05,0-7.99,2.09-9.01,6.89s2.03,6.89,6.08,6.89,7.99-2.09,9.01-6.89c1.02-4.8-2.03-6.89-6.08-6.89Z"/>
  <path d="m172.7,58.72c1.39-1.29,2.8-1.81,4.46-1.81,2.8,0,4.48,1.81,3.87,4.68l-1.86,8.72h-4.92l1.63-7.66c.22-1.27.2-2.65-1.33-2.65-2.44,0-2.7,2.67-2.73,2.83l-1.59,7.48h-4.92l2.06-9.68c.25-1.16.39-1.94.55-3.34h5l-.22,1.42Z"/>
  <path d="m182.47,70.31l3.97-18.7h4.92l-1.51,7.11c1.39-1.29,2.8-1.81,4.46-1.81,2.8,0,4.48,1.81,3.87,4.68l-1.85,8.72h-4.92l1.63-7.66c.22-1.27.2-2.65-1.33-2.65-2.44,0-2.7,2.67-2.73,2.83l-1.59,7.48h-4.92Z"/>
  <path d="m205.27,62.15c.45-1.49,1.12-2.7,2.85-2.78.76-.05,1.26.28,1.53.83.27.55.33,1.25.18,1.95h-4.56Zm8.66,2.64c1.03-4.85,0-7.88-5.29-7.88-3.91,0-7.48,2.33-8.35,6.45-1.09,5.11.51,7.32,5.71,7.32,1.53,0,3.04-.28,4.33-1,1.4-.72,2.72-1.93,3.23-3.62h-4.56c-.44,1.22-1.44,1.87-2.81,1.87-1.84,0-1.97-1.45-1.59-3.14h9.33Z"/>
  <path d="m224.57,68.89c-1.39,1.29-2.8,1.81-4.47,1.81-2.79,0-4.48-1.81-3.87-4.68l1.85-8.72h4.92l-1.63,7.66c-.22,1.27-.2,2.65,1.33,2.65,2.44,0,2.7-2.67,2.73-2.83l1.59-7.48h4.92l-2.06,9.68c-.25,1.16-.39,1.94-.55,3.34h-5l.23-1.42Z"/>
  <path d="m239.63,59.74h.05c1.03-2.15,2.79-2.88,4.95-2.83l-.89,4.17c-.36-.03-.69-.03-1.03-.03-2.57.03-3.78,1.56-4.23,4.04l-1.11,5.21h-4.92l2.06-9.67c.25-1.17.39-1.95.56-3.35h5l-.44,2.44Z"/>
  <path d="m250.81,70.31l3.98-18.7h2.59l-1.7,8.02h8.9l1.7-8.02h2.59l-3.97,18.7h-2.59l1.79-8.44h-8.91l-1.79,8.44h-2.59Z"/>
  <path d="m272.59,62.6c.46-2.15,2.05-3.9,4.09-3.9,2.38,0,3,1.7,2.48,3.9h-6.57Zm8.8,1.7l.26-1.21c.77-3.63-.54-6.09-4.41-6.17-4.11,0-6.71,3.19-7.52,7.02-.81,3.82.22,6.76,4.38,6.76,3.11,0,5.69-1.47,6.71-4.41h-2.59c-.69,1.88-1.8,2.63-3.72,2.63-2.51,0-2.94-2.35-2.28-4.62h9.16Z"/>
  <path d="m292.33,63.99c-.46,2.41-1.54,4.92-4.45,4.92-1.46,0-2.4-.8-2.06-2.41.4-1.89,2.52-2.43,4.04-2.51h2.47Zm-1.88-1.7c-3.09,0-6.55,1.05-7.33,4.7-.54,2.53,1.49,3.7,3.75,3.7,1.79,0,3.4-.7,4.55-2.32h.05c-.09.6-.16,1.16-.23,1.76-.05.31.41.18.65.18h1.66c.15-1.09.36-2.18.48-2.74l1.32-6.21c.78-3.65-1.69-4.44-4.36-4.44s-5,1.01-5.74,3.87h2.59c.32-1.36,1.63-2.09,2.88-2.09,2.61,0,2.46,1.33,1.98,3.6h-2.24Z"/>
  <path d="m297.72,70.31l3.98-18.7h2.46l-3.98,18.7h-2.46Z"/>
  <path d="m307.64,57.29l.59-2.77,2.62-.78-.76,3.55,3.02-.08-.39,1.84-3-.03-1.78,8.39c-.2.93.43,1.37,1.31,1.37.39,0,.92-.05,1.33-.16l-.4,1.9c-.58.03-1.15.16-1.72.16s-1.06-.03-1.63-.13c-.37-.08-.97-.29-1.27-.86-.31-.62-.42-.68-.06-2.41l1.76-8.26-2.23.03.39-1.84,2.21.08Z"/>
  <path d="m313.24,70.31l3.98-18.7h2.46l-1.58,7.44h.05c1.24-1.46,2.79-2.13,4.68-2.13,3.39,0,3.98,2.26,3.48,4.59l-1.87,8.8h-2.46l1.63-7.69c.48-2.28.2-3.75-2.1-3.81-.98-.03-2.64.72-3.34,1.81-.86,1.35-.9,2.28-1.05,3l-1.42,6.68h-2.46Z"/>
  <path d="m338.03,61.47c.22-1.63-.32-2.77-2.09-2.77-2.35,0-3.69,2.05-4.34,5.11-.65,3.06-.18,5.11,2.17,5.11,1.63,0,2.86-1.06,3.39-2.93h2.46c-.83,2.93-3.38,4.71-6.24,4.71-4.17,0-5.2-2.95-4.39-6.79.81-3.81,3.4-7,7.52-7,2.75,0,4.45,1.73,3.98,4.56h-2.46Z"/>
  <path d="m350.7,63.99c-.46,2.41-1.54,4.92-4.45,4.92-1.46,0-2.4-.8-2.06-2.41.4-1.89,2.52-2.43,4.04-2.51h2.47Zm-1.88-1.7c-3.09,0-6.55,1.05-7.33,4.7-.54,2.53,1.49,3.7,3.75,3.7,1.79,0,3.4-.7,4.55-2.32h.05c-.09.6-.16,1.16-.23,1.76-.05.31.41.18.65.18h1.66c.15-1.09.36-2.18.48-2.74l1.32-6.21c.77-3.65-1.7-4.44-4.36-4.44s-5,1.01-5.74,3.87h2.59c.31-1.36,1.63-2.09,2.88-2.09,2.61,0,2.46,1.33,1.98,3.6h-2.24Z"/>
  <path d="m358.58,70.31h-2.46l2.77-13.02h2.46l-.54,2.54h.05c.74-1.79,2.6-2.7,4.38-2.7.31,0,.56.03.85.03l-.5,2.34c-.31-.13-.7-.13-1.04-.13-3.13.1-4.03,1.76-4.61,4.5l-1.37,6.44Z"/>
  <path d="m368.42,62.6c.46-2.15,2.05-3.9,4.09-3.9,2.38,0,3,1.7,2.48,3.9h-6.57Zm8.8,1.7l.26-1.21c.77-3.63-.54-6.09-4.41-6.17-4.11,0-6.71,3.19-7.52,7.02-.81,3.82.22,6.76,4.38,6.76,3.11,0,5.7-1.47,6.71-4.41h-2.59c-.69,1.88-1.8,2.63-3.72,2.63-2.51,0-2.94-2.35-2.28-4.62h9.16Z"/>
  <path d="m264.68,27.74c0,1.63-.43,3.99-.93,6.23-.95,4.2-2.36,5.13-4.01,5.13-1.45,0-2.21-.62-2.21-3.01,0-1.23.28-3.14.94-5.84.83-3.44,2.09-5.05,3.97-5.05,1.39,0,2.25.69,2.25,2.54Zm-20.45,7.37c0,7.47,4.93,11.42,14.74,11.42,5.75,0,10.21-1.43,13.6-4.36,3.12-2.7,5.38-7.32,5.38-13.17,0-7.42-5.58-11.21-14.8-11.21-6.23,0-10.81,1.8-13.9,4.7-3.47,3.25-5.03,8.16-5.03,12.62Z"/>
  <path d="m166.76,28.72c.07-.72.39-1.74.71-2.35.7-1.38,1.63-1.86,3.16-1.86s2.41.65,2.46,2.15c.02.43-.13,1.16-.36,2.05h-5.97Zm-1.14,5.83h18.62c.62-2.1.73-4.15.73-5.71,0-6.91-4.21-11.21-13.89-11.21-5.76,0-10.52,1.79-13.52,4.78-2.97,2.96-4.83,8.4-4.83,12.76,0,3.6,1.29,6.89,3.55,8.58,2.54,1.9,5.55,2.77,11.24,2.77,3.16,0,7.51-.78,9.83-1.87,3.61-1.71,5.76-4.63,6.24-7.77h-12.15c-.56,1.92-1.46,2.84-3.29,2.84s-2.9-1.15-2.9-3.01c0-.59.11-1.54.36-2.16Z"/>
  <path class="cls-3" d="m379.24,26.93h5.93l1.82-8.54h-5.93l1.91-8.98-14.14,4.57-.94,4.41h-3.54l-1.55,7.27v-.49c0-5.67-5.47-7.39-12.93-7.39-5.32,0-8.9.94-11.56,2.71-2.81,1.86-4.22,5.35-4.22,7.45,0,4.15,2.39,6.17,8.44,7.25l2.08.37c3.78.67,4.74,1.12,4.74,2.46,0,1.64-1.25,2.39-2.98,2.39-1.86,0-2.74-.8-2.74-2.32,0-.68.09-1.01.19-1.53h-11.49c-.24.6-.43,1.67-.43,2.42,0,4.59,4.21,7.57,13.56,7.57,4.49,0,8.96-.98,11.68-2.7,2.77-1.76,4.47-4.71,4.47-8.13,0-4.41-3.02-6.25-9.08-7.25l-.62-.1c-4.86-.8-5.58-1.03-5.58-2.45,0-.85.83-1.99,2.77-1.99,1.81,0,2.73.59,2.43,3.02h14.52l-2.53,11.91c-1.3,6.09,3.1,7.67,8.22,7.67,2.61,0,5.88-.54,9.01-1.2l1.71-8.05c-1.27.33-2.35.33-3.28.33-1.58,0-2.08-.71-1.64-2.77l1.68-7.89Z"/>
  <g>
    <path class="cls-2" d="m81.36,39.19c-.26-6.85-2.25-13.55-5.78-19.44l-24.06,17.73,29.83,1.71Z"/>
    <path class="cls-2" d="m75.35,19.36c-3.48-5.67-8.41-10.56-14.6-14.07l-12.21,27.27,26.81-13.2Z"/>
    <path class="cls-2" d="m76.83,59.41c3.27-6.3,4.73-13.1,4.55-19.76l-29.67,3.58,25.12,16.18Z"/>
    <path class="cls-2" d="m60.35,5.07C54.11,1.63,47.37,0,40.71,0l2.81,29.75L60.35,5.07Z"/>
    <path class="cls-2" d="m68.58,70.34c2.96-2.78,5.55-6.06,7.63-9.8.14-.24.27-.49.4-.73l-19.04-7.93c4.8,5.49,8.5,11.76,11,18.46Z"/>
    <path class="cls-2" d="m5.59,20.12c-.14.24-.28.48-.42.72-2.09,3.74-3.52,7.65-4.34,11.63,7.02-1.37,14.3-1.51,21.49-.3L5.59,20.12Z"/>
    <path class="cls-2" d="m38.91,43.9c-12.19-6.81-25.54-9.62-38.52-8.85-2.26,16.14,5.37,32.74,20.45,41.17,15.08,8.43,33.22,6.23,45.78-4.15-6.15-11.46-15.53-21.35-27.72-28.17Z"/>
    <path class="cls-2" d="m40.25,0c-6.86.08-13.61,1.9-19.59,5.27l17.09,24.51L40.25,0Z"/>
    <path class="cls-2" d="m20.27,5.5c-5.77,3.34-10.79,8.14-14.45,14.23l26.94,12.91L20.27,5.5Z"/>
  </g>
  <g>
    <path d="m386.75,43.13c-.18.92.28,1.26,1.16,1.26.74,0,1.69-.22,1.89-1.13.13-.63-.33-.89-.86-.98-1.02-.24-2.76-.48-2.45-1.95.3-1.42,1.71-1.94,2.93-1.94,1.11,0,2.1.5,1.83,1.76h-.95c.12-.73-.44-.98-1.09-.98s-1.57.23-1.73,1.01c-.16.74.35.79.89.95,1.12.39,2.76.39,2.41,2.04-.32,1.48-1.76,2.01-3.08,2.01s-2.24-.58-1.89-2.04h.95Z"/>
    <path d="m398.96,39.17h-.02l-3.33,5.87h-.85l-.83-5.87h-.02l-1.25,5.87h-.9l1.39-6.52h1.62l.73,5.37h.02l2.98-5.37h1.51l-1.39,6.52h-.9l1.25-5.87Z"/>
  </g>
</svg>