<svg height="321.513276" viewBox="0 0 23.488584 24.430883" width="311.029147" xmlns="http://www.w3.org/2000/svg"><path d="m0 0c.019-1.595-.384-4.52-.358-4.52-.957-8.695-3.94-17.507-8.441-25.165l17.996.22c-5.282 9.04-8.662 18.816-9.268 29.438z" fill="#ffdf1c" transform="matrix(.35277777 0 0 -.35277777 11.715608 .13229)"/><path d="m0 0c-7.039 3.466-14.485 5.41-22.498 6.446-3.186.337-5.847.659-8.986.634l8.932 16.446c5.508-9.426 12.996-17.31 22.552-23.526" fill="#0099d8" transform="matrix(.35277777 0 0 -.35277777 22.915954 18.82669)"/><path d="m0 0 .077-.052c1.827 2.881 3.576 5.866 5.3 8.747h2.392l-.051-11.165c-.618-.128-1.261 0-1.955 0v7.924c-.927-1.544-4.065-6.792-4.76-7.898-.591-.051-1.26-.051-1.8 0l-4.631 8.026-.026.026c-.154-2.65-.103-5.376-.128-7.949l-1.93-.026.052 11.165.025.026 2.316-.026z" transform="matrix(.35277777 0 0 -.35277777 2.782358 23.11873)"/><path d="m0 0 8.644-.129c.102-.617-.026-1.157 0-1.697l-10.522.128.077 11.165.077.026 1.801-.026z" transform="matrix(.35277777 0 0 -.35277777 7.138564 23.4092)"/><path d="m0 0c-.438-.36-.977-.772-1.518-1.003-2.135 2.007-5.197 2.804-8.129 2.058-1.544-.412-3.293-1.698-3.576-3.396-.206-1.569.875-2.907 2.161-3.602 2.367-1.337 5.326-1.286 7.872-.411.9.463 1.749 1.312 1.827 2.341-2.342.103-4.502.077-6.895.129l-.025 1.698 9.364-.052c.051-2.187-.952-4.579-3.165-5.531-3.318-1.621-7.949-1.235-10.907.849-1.467 1.209-2.341 2.933-2.084 4.888.231 1.929 1.981 3.627 3.704 4.347 3.499 1.364 7.718 1.004 10.599-1.44z" transform="matrix(.35277777 0 0 -.35277777 15.714694 21.20392)"/><path d="m0 0 .026-.051c1.389 2.752 2.701 5.556 4.039 8.334h1.672c1.364-2.752 2.495-5.633 3.833-8.411 1.287 2.675 2.341 5.582 3.499 8.334h1.929c.051-.308-3.087-7.743-4.553-11.113h-1.621l-3.91 8.489-4.142-8.412h-1.698l-4.193 11.191.051.051 1.853-.025z" transform="matrix(.35277777 0 0 -.35277777 18.065114 23.13693)"/><path d="m0 0c9.618 6.098 17.159 13.71 22.804 23.317l9.064-16.228c-11.328-.09-22.416-2.25-31.907-7.077z" fill="#f15d2f" transform="matrix(.35277777 0 0 -.35277777 .566561 18.83011)"/></svg>